<?xml version="1.0" encoding="UTF-8" standalone="no"?>
<!-- Created with Inkscape (http://www.inkscape.org/) -->

<svg
   xmlns:dc="http://purl.org/dc/elements/1.1/"
   xmlns:cc="http://creativecommons.org/ns#"
   xmlns:rdf="http://www.w3.org/1999/02/22-rdf-syntax-ns#"
   xmlns:svg="http://www.w3.org/2000/svg"
   xmlns="http://www.w3.org/2000/svg"
   xmlns:sodipodi="http://sodipodi.sourceforge.net/DTD/sodipodi-0.dtd"
   xmlns:inkscape="http://www.inkscape.org/namespaces/inkscape"
   width="18"
   height="18"
   id="svg2"
   version="1.1"
   inkscape:version="0.48.2 r9819"
   sodipodi:docname="Heart Empty">
  <defs
     id="defs4" />
  <sodipodi:namedview
     id="base"
     pagecolor="#ffffff"
     bordercolor="#666666"
     borderopacity="1.0"
     inkscape:pageopacity="0.0"
     inkscape:pageshadow="2"
     inkscape:zoom="0.24748737"
     inkscape:cx="348.79047"
     inkscape:cy="761.42814"
     inkscape:document-units="px"
     inkscape:current-layer="layer1"
     showgrid="false"
     fit-margin-top="0"
     fit-margin-left="0"
     fit-margin-right="0"
     fit-margin-bottom="0"
     inkscape:window-width="852"
     inkscape:window-height="573"
     inkscape:window-x="266"
     inkscape:window-y="64"
     inkscape:window-maximized="0" />
  <metadata
     id="metadata7">
    <rdf:RDF>
      <cc:Work
         rdf:about="">
        <dc:format>image/svg+xml</dc:format>
        <dc:type
           rdf:resource="http://purl.org/dc/dcmitype/StillImage" />
        <dc:title></dc:title>
      </cc:Work>
    </rdf:RDF>
  </metadata>
  <path
     style="fill:#888888"
     d="m 329.2143,800.99195 c -9.10379,-1.94158 -18.5412,-5.94299 -26.96692,-11.43381 C 297.04127,786.16545 263.76129,752.84661 158.00556,645.1479 82.394712,568.1479 17.236694,501.06638 13.209973,496.07785 -31.813819,440.29987 -48.914716,362.52006 -31.232392,293.94116 -15.452245,232.73964 27.548239,179.89113 84.214302,152.05473 129.61324,129.75314 182.75536,124.83777 235.15471,138.09352 c 38.00701,9.61484 72.856,28.61464 102.35508,55.80438 4.02782,3.7125 7.79033,6.75 8.36114,6.75 0.57081,0 4.03158,-2.8395 7.6906,-6.31 21.59968,-20.48683 51.036,-38.69227 79.50948,-49.17413 66.96478,-24.65154 142.15849,-16.93617 197.67723,20.283 52.49275,35.19059 86.92841,89.10485 96.57389,151.20113 2.18711,14.0803 2.50759,48.92068 0.5749,62.5 -6.34522,44.58235 -25.89023,89.51876 -52.425,120.53154 -3.54422,4.14235 -67.84911,70.06802 -142.89974,146.50149 -103.26343,105.1661 -138.0643,140.01799 -143.06878,143.27854 -17.79167,11.59173 -40.04873,15.8492 -60.28921,11.53248 z M 477.91285,598.8979 c 71.14549,-72.4625 133.2859,-135.96313 138.08981,-141.1125 34.89167,-37.40093 49.31672,-92.94762 37.16765,-143.12188 -11.09915,-45.83819 -44.13958,-84.97104 -86.29722,-102.20979 -50.73202,-20.74491 -112.04222,-10.44035 -156.11686,26.23893 -3.3659,2.80114 -19.38209,18.44948 -35.59154,34.7741 l -29.47173,29.68114 -29.23933,-29.5131 c -31.23794,-31.53042 -37.68795,-37.37761 -50.23933,-45.54398 -40.31362,-26.22945 -89.20332,-33.23751 -132.15132,-18.94314 -20.88459,6.95102 -38.690418,17.97615 -54.911098,34.00022 -31.65297,31.26932 -47.140824,70.60562 -45.081998,114.5 1.799307,38.36141 16.432149,73.55622 41.837718,100.62779 5.09557,5.42972 67.249818,68.93471 138.120558,141.12221 111.13931,113.20425 129.24591,131.25 131.69257,131.25 2.44668,0 20.62146,-18.11399 132.19212,-131.75 z"
     id="path2998"
     inkscape:connector-curvature="0" />
</svg>
