<?xml version="1.0" encoding="UTF-8" standalone="no"?>
<!-- Created with Inkscape (http://www.inkscape.org/) -->

<svg
   xmlns:dc="http://purl.org/dc/elements/1.1/"
   xmlns:cc="http://creativecommons.org/ns#"
   xmlns:rdf="http://www.w3.org/1999/02/22-rdf-syntax-ns#"
   xmlns:svg="http://www.w3.org/2000/svg"
   xmlns="http://www.w3.org/2000/svg"
   xmlns:sodipodi="http://sodipodi.sourceforge.net/DTD/sodipodi-0.dtd"
   xmlns:inkscape="http://www.inkscape.org/namespaces/inkscape"
   id="svg5212"
   version="1.1"
   inkscape:version="0.48.2 r9819"
   width="18"
   height="18"
   viewBox="0 0 768 768"
   sodipodi:docname="Heart Full Pink">
  <metadata
     id="metadata5218">
    <rdf:RDF>
      <cc:Work
         rdf:about="">
        <dc:format>image/svg+xml</dc:format>
        <dc:type
           rdf:resource="http://purl.org/dc/dcmitype/StillImage" />
        <dc:title></dc:title>
      </cc:Work>
    </rdf:RDF>
  </metadata>
  <defs
     id="defs5216" />
  <sodipodi:namedview
     pagecolor="#ffffff"
     bordercolor="#666666"
     borderopacity="1"
     objecttolerance="10"
     gridtolerance="10"
     guidetolerance="10"
     inkscape:pageopacity="0"
     inkscape:pageshadow="2"
     inkscape:window-width="1188"
     inkscape:window-height="839"
     id="namedview5214"
     showgrid="false"
     inkscape:zoom="0.30729167"
     inkscape:cx="-5.3276056"
     inkscape:cy="384.68006"
     inkscape:window-x="1978"
     inkscape:window-y="268"
     inkscape:window-maximized="0"
     inkscape:current-layer="svg5212" />
  <path
     style="fill:#f69bf4"
     d="m 367.67357,718.26959 c -9.10379,-1.94158 -18.5412,-5.94299 -26.96692,-11.43381 C 335.50054,703.44309 302.22056,670.12425 196.46483,562.42554 120.85398,485.42554 55.695961,418.34402 51.66924,413.35549 6.645448,357.57751 -10.455449,279.7977 7.226875,211.2188 23.007022,150.01728 66.007509,97.168773 122.67357,69.332375 c 45.39894,-22.30159 98.54106,-27.21696 150.94041,-13.96121 38.00701,9.61484 72.856,28.61465 102.35508,55.804375 4.02782,3.7125 7.79033,6.75 8.36114,6.75 0.57081,0 4.03158,-2.8395 7.6906,-6.31 21.59968,-20.486827 51.036,-38.692265 79.50948,-49.174125 66.96478,-24.65154 142.15849,-16.93617 197.67723,20.28301 52.49275,35.190575 86.92841,89.104835 96.57389,151.201115 2.18711,14.0803 2.50759,48.92068 0.5749,62.5 -6.34522,44.58235 -25.89023,89.51876 -52.425,120.53154 -3.54422,4.14235 -67.84911,70.06802 -142.89974,146.50149 -103.26343,105.1661 -138.0643,140.01799 -143.06878,143.27854 -17.79167,11.59173 -40.04873,15.8492 -60.28921,11.53248 z"
     id="path5222"
     inkscape:connector-curvature="0" />
</svg>
