<?xml version="1.0" encoding="UTF-8" standalone="no"?>
<!-- Created with Inkscape (http://www.inkscape.org/) -->

<svg
   xmlns:dc="http://purl.org/dc/elements/1.1/"
   xmlns:cc="http://creativecommons.org/ns#"
   xmlns:rdf="http://www.w3.org/1999/02/22-rdf-syntax-ns#"
   xmlns:svg="http://www.w3.org/2000/svg"
   xmlns="http://www.w3.org/2000/svg"
   xmlns:sodipodi="http://sodipodi.sourceforge.net/DTD/sodipodi-0.dtd"
   xmlns:inkscape="http://www.inkscape.org/namespaces/inkscape"
   id="svg5224"
   version="1.1"
   inkscape:version="0.48.2 r9819"
   width="16"
   height="16"
   sodipodi:docname="Star Empty Yellow">
  <metadata
     id="metadata5230">
    <rdf:RDF>
      <cc:Work
         rdf:about="">
        <dc:format>image/svg+xml</dc:format>
        <dc:type
           rdf:resource="http://purl.org/dc/dcmitype/StillImage" />
        <dc:title></dc:title>
      </cc:Work>
    </rdf:RDF>
  </metadata>
  <defs
     id="defs5228" />
  <sodipodi:namedview
     pagecolor="#ffffff"
     bordercolor="#666666"
     borderopacity="1"
     objecttolerance="10"
     gridtolerance="10"
     guidetolerance="10"
     inkscape:pageopacity="0"
     inkscape:pageshadow="2"
     inkscape:window-width="1284"
     inkscape:window-height="927"
     id="namedview5226"
     showgrid="false"
     inkscape:zoom="0.26848692"
     inkscape:cx="-5.0868644"
     inkscape:cy="439.5"
     inkscape:window-x="0"
     inkscape:window-y="0"
     inkscape:window-maximized="0"
     inkscape:current-layer="svg5224" />
  <path
     style="fill:#f5f795"
     d="m 197.4855,819.11699 c -6.33897,-2.76158 -11.88335,-10.10392 -13.0261,-17.25029 -0.70641,-4.41761 -1.85796,1.29315 21.54576,-106.84968 21.26127,-98.24311 23.00883,-106.30328 28.40268,-131 3.39376,-15.53899 4.11641,-20.37167 3.23985,-21.66632 -0.62052,-0.91648 -43.66592,-39.65791 -95.65644,-86.09208 -51.990525,-46.43416 -95.735735,-85.86079 -97.211575,-87.61473 -4.39121,-5.21865 -5.80031,-12.84227 -3.74279,-20.24954 1.37138,-4.9371 8.07671,-12.29771 12.99596,-14.26601 2.78555,-1.11455 30.12835,-4.26402 87.766345,-10.10933 167.55809,-16.99276 172.69464,-17.54756 173.91987,-18.78525 1.24237,-1.255 2.88872,-4.93019 47.80521,-106.71674 42.55917,-96.44456 52.14072,-118.180267 54.41709,-123.444937 3.14117,-7.26477 6.59198,-11.27503 12.10688,-14.06963 9.31184,-4.71867 20.44368,-2.58747 26.87756,5.14573 2.00658,2.41182 10.10833,19.49797 21.51254,45.368837 10.06156,22.825 33.26449,75.475 51.56207,117 18.29759,41.525 33.77476,76.02975 34.39366,76.67722 0.6684,0.69917 13.3081,2.41789 31.1254,4.23235 29.5166,3.0059 50.5937,5.14341 168.1162,17.04929 32.5139,3.2939 60.4119,6.48153 61.9956,7.08364 5.1587,1.96133 9.5562,6.12199 11.986,11.34047 3.7172,7.98322 2.8361,16.57106 -2.3302,22.7108 -1.4605,1.73573 -45.2057,41.16322 -97.2115,87.61664 -52.0059,46.45342 -95.0813,85.20975 -95.7232,86.12518 -0.928,1.32356 0.1491,7.7057 5.2598,31.16441 3.5348,16.225 9.1008,41.875 12.369,57 3.2682,15.125 12.7486,59 21.0675,97.5 15.6945,72.63334 15.8891,73.88972 12.4714,80.49885 -2.1037,4.06813 -7.2024,8.8497 -11.2318,10.53331 -5.133,2.1447 -13.5543,1.873 -18.3886,-0.59326 -2.222,-1.13361 -53.1043,-30.60861 -113.07165,-65.5 -59.96737,-34.8914 -109.78973,-63.4389 -110.71636,-63.4389 -0.92663,0 -5.03895,2.1915 -9.13849,4.87001 -4.09953,2.6785 -19.8287,12.05384 -34.9537,20.83408 -15.125,8.78024 -60.8,35.32678 -101.5,58.99231 -40.7,23.66554 -75.89457,43.9902 -78.21016,45.16592 -4.88138,2.47848 -14.00701,2.83609 -18.82381,0.73765 z m 70.78482,-82.74888 c 13.33703,-7.81607 30.54915,-17.8788 38.24915,-22.36162 14.44083,-8.40724 29.97351,-17.52782 34.68936,-20.36912 1.47915,-0.89119 7.77915,-4.52268 14,-8.06997 6.22085,-3.54729 13.66277,-7.94199 16.5376,-9.76599 2.87483,-1.82401 6.24983,-3.75068 7.5,-4.2815 1.25017,-0.53081 4.34672,-2.21112 6.88121,-3.734 2.5345,-1.52289 11.0845,-6.51238 19,-11.08776 7.91551,-4.57538 18.64668,-10.98788 23.84705,-14.25 5.20037,-3.26212 10.15037,-5.92927 11,-5.92699 0.84963,0.002 4.01978,1.54699 7.04478,3.43271 8.72749,5.44052 16.63197,10.0706 85.5,50.08189 35.75,20.77021 74.1894,43.11904 85.4209,49.66407 11.2314,6.54502 20.9778,11.6863 21.6586,11.42506 0.8986,-0.34481 1.0034,-1.52084 0.3825,-4.29142 -0.885,-3.94859 -9.6019,-44.23274 -32.092,-148.30923 -14.4118,-66.69244 -14.7608,-69.40277 -9.8268,-76.31838 1.3512,-1.89397 26.7568,-25.15814 56.4568,-51.69815 29.7,-26.54002 65.7259,-58.7322 80.0575,-71.53819 28.5093,-25.47442 29.1816,-26.13585 27.8501,-27.39675 -0.4992,-0.47271 -10.5826,-1.80126 -22.4076,-2.95233 -11.825,-1.15106 -43.775,-4.36588 -71,-7.14404 -27.225,-2.77816 -66.6583,-6.7857 -87.6296,-8.90565 -20.97122,-2.11995 -39.19622,-4.40575 -40.49996,-5.07957 -5.22699,-2.70148 -9.01619,-6.32911 -11.26658,-10.78617 -1.92929,-3.82111 -43.44961,-97.63966 -67.57356,-152.68799 -3.13336,-7.15 -6.86785,-15.25 -8.29887,-18 -1.43101,-2.75 -4.61804,-9.11249 -7.0823,-14.13886 -2.46425,-5.02637 -4.9561,-9.43282 -5.53744,-9.79211 -1.12266,-0.69385 -13.10034,22.13988 -21.2085,40.43097 -16.11669,36.3574 -34.97068,78.97054 -50.88124,115 -17.88638,40.50373 -18.45729,41.62436 -23.78154,46.68025 -3.84884,3.65484 -6.52783,5.34776 -9.09781,5.74914 -2.00343,0.31289 -31.0926,3.31576 -64.6426,6.67305 -138.6474,13.87419 -152.84221,15.40452 -153.2099,16.51739 -0.31031,0.9392 21.76576,21.31066 52.14273,48.11653 3.88694,3.42999 10.95335,9.72999 15.70312,14 4.74977,4.27 14.19977,12.65774 21,18.63941 6.80023,5.98167 12.81405,11.42393 13.36405,12.0939 0.55,0.66998 5.05,4.74001 10,9.04453 4.95,4.30451 12.6,11.07203 17,15.03893 4.4,3.96691 13.625,12.24472 20.5,18.39515 6.875,6.15043 13.625,13.06565 15,15.36716 4.42423,7.40539 3.6215,14.90221 -6.06959,56.68456 -1.08433,4.675 -3.27649,14.8 -4.87147,22.5 -9.21494,44.4866 -12.80161,61.25166 -17.00801,79.5 -1.58475,6.875 -3.63354,16.325 -4.55286,21 -0.91932,4.675 -2.92626,13.9 -4.45986,20.5 -5.28103,22.72742 -5.97802,28.07462 -3.53736,27.13805 0.82547,-0.31676 12.41297,-6.9709 25.75,-14.78696 z"
     id="path5234"
     inkscape:connector-curvature="0" />
</svg>
