<?xml version="1.0" encoding="UTF-8" standalone="no"?>
<!-- Created with Inkscape (http://www.inkscape.org/) -->

<svg
   xmlns:dc="http://purl.org/dc/elements/1.1/"
   xmlns:cc="http://creativecommons.org/ns#"
   xmlns:rdf="http://www.w3.org/1999/02/22-rdf-syntax-ns#"
   xmlns:svg="http://www.w3.org/2000/svg"
   xmlns="http://www.w3.org/2000/svg"
   xmlns:sodipodi="http://sodipodi.sourceforge.net/DTD/sodipodi-0.dtd"
   xmlns:inkscape="http://www.inkscape.org/namespaces/inkscape"
   id="svg5248"
   version="1.1"
   inkscape:version="0.48.2 r9819"
   width="16"
   height="16"
   sodipodi:docname="Star Full Yellow">
  <metadata
     id="metadata5254">
    <rdf:RDF>
      <cc:Work
         rdf:about="">
        <dc:format>image/svg+xml</dc:format>
        <dc:type
           rdf:resource="http://purl.org/dc/dcmitype/StillImage" />
        <dc:title></dc:title>
      </cc:Work>
    </rdf:RDF>
  </metadata>
  <defs
     id="defs5252" />
  <sodipodi:namedview
     pagecolor="#ffffff"
     bordercolor="#666666"
     borderopacity="1"
     objecttolerance="10"
     gridtolerance="10"
     guidetolerance="10"
     inkscape:pageopacity="0"
     inkscape:pageshadow="2"
     inkscape:window-width="640"
     inkscape:window-height="480"
     id="namedview5250"
     showgrid="false"
     inkscape:zoom="0.26848692"
     inkscape:cx="-5.0868644"
     inkscape:cy="439.5"
     inkscape:window-x="0"
     inkscape:window-y="0"
     inkscape:window-maximized="0"
     inkscape:current-layer="svg5248" />
  <path
     style="fill:#f5f794"
     d="m 200.54275,820.06163 c -7.93729,-2.55893 -13.88842,-9.07569 -15.68755,-17.1786 -1.25935,-5.67183 -1.3611,-5.12536 14.40842,-77.38393 1.44036,-6.6 3.52974,-16.275 4.64305,-21.5 2.11146,-9.90948 3.93865,-18.35401 8.33047,-38.5 1.4388,-6.6 3.47123,-16.05 4.51652,-21 2.3828,-11.28394 6.34205,-29.53796 9.65193,-44.5 1.39921,-6.325 2.75683,-12.625 3.01693,-14 0.26011,-1.375 1.33863,-6.325 2.39671,-11 1.05809,-4.675 3.07834,-13.78277 4.48945,-20.23949 l 2.56567,-11.7395 -6.29782,-5.85543 c -3.4638,-3.22049 -8.09782,-7.36771 -10.29782,-9.21605 -2.2,-1.84834 -6.94703,-6.08062 -10.54896,-9.40507 -3.60192,-3.32445 -18.20418,-16.39446 -32.44946,-29.04446 -14.24528,-12.65 -28.87634,-25.7 -32.51348,-29 -6.93941,-6.29619 -13.14559,-11.84251 -36.9881,-33.05542 -46.062636,-40.98238 -64.774786,-58.26781 -66.989676,-61.882 -3.16016,-5.15664 -3.45582,-15.12882 -0.60965,-20.56258 4.81811,-9.19848 10.12162,-11.96279 26.09933,-13.60354 23.46234,-2.40935 43.276256,-4.42364 63.499996,-6.45543 11.275,-1.13275 28.6,-2.91198 38.5,-3.95383 9.9,-1.04185 20.925,-2.1533 24.5,-2.4699 3.575,-0.31659 14.6,-1.43641 24.5,-2.48849 9.9,-1.05208 27.225,-2.83209 38.5,-3.95558 38.07107,-3.79357 51.48658,-5.24283 54.87392,-5.92795 3.14324,-0.63575 3.67693,-1.36485 7.80581,-10.66385 2.43754,-5.48978 5.56743,-12.43153 6.9553,-15.42609 1.38788,-2.99456 4.45764,-9.96956 6.82169,-15.5 2.36405,-5.53044 8.89108,-20.40534 14.50451,-33.05534 5.61343,-12.65 14.95481,-33.8 20.75862,-47 5.80381,-13.2 16.71846,-37.95 24.25477,-55 7.53632,-17.05 16.36256,-37.053983 19.61389,-44.453283 7.73682,-17.60735 10.09009,-21.05112 16.65467,-24.37249 12.36903,-6.25816 25.96689,-0.72118 31.96884,13.01755 9.63576,22.0567 54.70031,124.230813 57.25275,129.808223 1.10126,2.40641 9.50607,21.50793 22.00035,50 0.72356,1.65 2.42837,5.475 3.78847,8.5 3.63227,8.07854 5.77968,12.91601 12.80614,28.84844 4.44962,10.08946 6.93822,14.56761 8.38408,15.08682 1.1309,0.40611 7.90619,1.29562 15.05619,1.97669 7.15,0.68106 19.3,1.89986 27,2.70844 26.93096,2.82801 63.09723,6.43362 74.5,7.42731 6.325,0.55119 14.87497,1.43441 18.99997,1.9627 4.125,0.52829 12.675,1.41155 19,1.9628 6.325,0.55125 19.825,1.88883 30,2.97242 10.175,1.08358 27.95,2.91626 39.5,4.07262 32.0739,3.21116 34.0767,3.54363 39.1077,6.492 2.6689,1.56406 5.7548,4.5687 7.4699,7.27317 2.4964,3.93631 2.9224,5.60597 2.9224,11.45221 0,11.916 1.0649,10.68222 -43.0596,49.88825 -15.7078,13.95687 -45.1231,40.22613 -65.3673,58.37613 -20.2442,18.15 -39.6532,35.475 -43.13116,38.5 -20.48407,17.81641 -46.44191,41.55098 -46.44191,42.4642 0,0.58633 1.37371,7.13425 3.05269,14.55093 1.67898,7.41668 3.68164,16.63487 4.45036,20.48487 0.76872,3.85 2.78526,13.3 4.4812,21 1.69595,7.7 3.72095,17.15 4.5,21 1.27157,6.28392 3.02337,14.30838 9.60554,44 1.09734,4.95 2.8527,13.05 3.90081,18 2.31664,10.94103 6.16175,28.68163 8.99475,41.5 1.15478,5.225 2.95714,13.55 4.00525,18.5 1.04811,4.95 3.07074,14.4 4.49474,21 5.21213,24.15751 6.49603,31.0849 6.50523,35.10078 0.039,17.03381 -17.72192,27.55005 -33.05755,19.57325 -5.65456,-2.94121 -24.68915,-13.86024 -26.43302,-15.16307 -0.55,-0.4109 -8.65,-5.15158 -18,-10.53483 -9.35,-5.38326 -18.35,-10.57298 -20,-11.53271 -1.65,-0.95974 -8.4,-4.88102 -15,-8.71396 -6.6,-3.83295 -18.75,-10.91821 -27,-15.74503 -16.90643,-9.89144 -30.44146,-17.76746 -78.5,-45.67907 -18.425,-10.70093 -34.4054,-20.02616 -35.51199,-20.72271 -1.76664,-1.11202 -3.10805,-0.62748 -11,3.9734 -4.94341,2.88193 -14.38801,8.3797 -20.98801,12.21727 -6.6,3.83757 -13.21021,7.70849 -14.68936,8.60204 -1.47915,0.89355 -7.74878,4.54964 -13.93251,8.12464 -6.18372,3.575 -13.15146,7.625 -15.48385,9 -2.33239,1.375 -8.88776,5.1711 -14.56749,8.43577 -5.67974,3.26468 -19.55179,11.31925 -30.82679,17.89905 -18.93103,11.04766 -47.39756,27.60074 -54.5,31.69135 -1.65,0.9503 -10.2,5.91371 -19,11.02979 -31.64343,18.39663 -32.91745,19.03866 -38.65189,19.47846 -2.94146,0.22559 -6.57929,0.0132 -8.08407,-0.47189 z"
     id="path5258"
     inkscape:connector-curvature="0" />
</svg>
