<?xml version="1.0" encoding="UTF-8" standalone="no"?>
<!-- Created with Inkscape (http://www.inkscape.org/) -->

<svg
   xmlns:dc="http://purl.org/dc/elements/1.1/"
   xmlns:cc="http://creativecommons.org/ns#"
   xmlns:rdf="http://www.w3.org/1999/02/22-rdf-syntax-ns#"
   xmlns:svg="http://www.w3.org/2000/svg"
   xmlns="http://www.w3.org/2000/svg"
   xmlns:sodipodi="http://sodipodi.sourceforge.net/DTD/sodipodi-0.dtd"
   xmlns:inkscape="http://www.inkscape.org/namespaces/inkscape"
   id="svg5236"
   version="1.1"
   inkscape:version="0.48.2 r9819"
   width="16"
   height="16"
   viewBox="0 0 880 880"
   sodipodi:docname="Star Half">
  <metadata
     id="metadata5242">
    <rdf:RDF>
      <cc:Work
         rdf:about="">
        <dc:format>image/svg+xml</dc:format>
        <dc:type
           rdf:resource="http://purl.org/dc/dcmitype/StillImage" />
        <dc:title></dc:title>
      </cc:Work>
    </rdf:RDF>
  </metadata>
  <defs
     id="defs5240" />
  <sodipodi:namedview
     pagecolor="#ffffff"
     bordercolor="#666666"
     borderopacity="1"
     objecttolerance="10"
     gridtolerance="10"
     guidetolerance="10"
     inkscape:pageopacity="0"
     inkscape:pageshadow="2"
     inkscape:window-width="640"
     inkscape:window-height="480"
     id="namedview5238"
     showgrid="false"
     inkscape:zoom="0.18984892"
     inkscape:cx="359.79747"
     inkscape:cy="526.30436"
     inkscape:window-x="151"
     inkscape:window-y="84"
     inkscape:window-maximized="0"
     inkscape:current-layer="svg5236" />
  <path
     style="fill:#888888"
     d="m 198.50941,818.90924 c -7.58384,-3.18737 -13.99923,-12.35383 -14.02011,-20.03225 -0.005,-1.97588 12.15699,-59.80088 27.02748,-128.5 14.87049,-68.69913 26.90799,-125.84112 26.75,-126.98221 -0.16728,-1.20822 -6.78207,-7.89054 -15.83832,-16 -8.55309,-7.65891 -38.23687,-34.17529 -65.96394,-58.92529 C 41.88597,366.19333 46.13362,370.08324 43.22953,364.77125 c -6.01778,-11.00738 -1.06605,-25.6573 10.19528,-30.16319 2.58277,-1.03342 19.79191,-3.20183 48.77284,-6.14555 24.63003,-2.50177 60.08188,-6.09874 78.78188,-7.99326 112.21979,-11.3691 134.0789,-13.70531 134.79223,-14.40601 0.72509,-0.71226 23.1598,-51.28428 81.88929,-184.59375 12.11513,-27.499999 23.12416,-51.626149 24.46452,-53.613669 7.5409,-11.18186 25.45542,-11.83818 34.26029,-1.25517 2.00658,2.41181 10.10833,19.49797 21.51254,45.368839 10.06156,22.825 33.26449,75.475 51.56207,117 18.29759,41.525 33.77475,76.02975 34.3937,76.67722 0.66836,0.69917 13.30809,2.41789 31.12537,4.23235 29.5166,3.0059 50.5937,5.14341 168.1162,17.04929 32.5139,3.2939 60.4119,6.48153 61.9956,7.08364 5.1586,1.96133 9.5562,6.12199 11.986,11.34047 3.7172,7.98322 2.8361,16.57106 -2.3302,22.7108 -1.4605,1.73573 -45.2057,41.16322 -97.2115,87.61664 -52.0059,46.45342 -95.0813,85.20975 -95.7232,86.12518 -0.928,1.32356 0.1491,7.7057 5.2598,31.16441 3.5347,16.225 9.1008,41.875 12.369,57 3.2682,15.125 12.7486,59 21.0675,97.5 15.6944,72.63334 15.8891,73.88972 12.4714,80.49885 -2.1037,4.06813 -7.2024,8.8497 -11.2318,10.53331 -5.133,2.1447 -13.5543,1.873 -18.3886,-0.59326 -2.222,-1.13361 -53.1043,-30.60861 -113.07166,-65.5 -59.96737,-34.8914 -109.64532,-63.4389 -110.39544,-63.4389 -1.19954,0 -33.58636,18.66687 -163.91311,94.47501 -67.85352,39.46887 -61.19417,35.94568 -68.5,36.24055 -3.575,0.14428 -7.61155,-0.20483 -8.97012,-0.77581 z m 441.27463,-68.976 c -0.2694,-2.01728 -12.3556,-58.19515 -30.3271,-140.96375 -16.6792,-76.81697 -17.0089,-79.19806 -11.9497,-86.28944 1.3598,-1.90592 26.7723,-25.17986 56.4723,-51.71987 29.7,-26.54002 65.7258,-58.7322 80.0575,-71.53819 28.487,-25.45456 29.1837,-26.13956 27.8501,-27.38472 -0.4992,-0.4661 -19.5826,-2.70785 -42.4076,-4.98167 -22.825,-2.27381 -54.55,-5.46951 -70.5,-7.10154 -15.95,-1.63204 -45.425,-4.58607 -65.50001,-6.56453 -20.075,-1.97845 -38.11815,-4.006 -40.09588,-4.50566 -5.52732,-1.39643 -11.58235,-6.34392 -14.26409,-11.65501 -1.32173,-2.61765 -15.69125,-34.90937 -31.93225,-71.75937 -41.85675,-94.97079 -43.53916,-98.73138 -44.68141,-99.87363 -0.70183,-0.70183 -1.06072,1.48747 -1.135,6.92363 -0.38921,28.48556 -0.50201,460.13091 -0.12152,465.03313 l 0.47215,6.08314 7.629,4.52452 c 4.19595,2.48848 38.454,22.44169 76.129,44.34045 37.675,21.89877 75.92501,44.20437 85.00001,49.56801 15.9485,9.42615 19.7182,10.96187 19.3045,7.8645 z"
     id="path5246"
     inkscape:connector-curvature="0" />
</svg>
